<?xml version="1.0" encoding="UTF-8"?><svg id="Layer_2" xmlns="http://www.w3.org/2000/svg" viewBox="0 0 299.7675 84.4546"><g id="Components"><g id="_7bfc68e8-b997-4391-9024-88466e3742cf_1"><path d="M121.8581,21.7651c-.576-1.061-1.403-1.8719-2.48-2.433-1.076-.561-2.342-.842-3.797-.842-2.519,0-4.535.827-6.051,2.479-1.517,1.653-2.275,3.86-2.275,6.619,0,2.942.797,5.24,2.389,6.892,1.592,1.653,3.783,2.479,6.573,2.479,1.911,0,3.525-.484,4.845-1.456,1.319-.97,2.281-2.365,2.888-4.184h-9.871v-5.733h16.922v7.233c-.576,1.942-1.554,3.746-2.933,5.414-1.381,1.668-3.133,3.018-5.255,4.049-2.123,1.031-4.519,1.546-7.187,1.546-3.154,0-5.967-.689-8.438-2.07-2.473-1.379-4.398-3.298-5.778-5.754-1.38-2.456-2.07-5.262-2.07-8.416s.69-5.966,2.07-8.438c1.38-2.471,3.298-4.397,5.755-5.777,2.456-1.38,5.261-2.07,8.416-2.07,3.82,0,7.043.925,9.666,2.775,2.623,1.85,4.359,4.412,5.209,7.687h-8.598Z" style="fill:#1745c7;"/><polygon points="143.1013 17.8991 143.1013 24.3591 153.5183 24.3591 153.5183 30.3632 143.1013 30.3632 143.1013 37.3682 154.8833 37.3682 154.8833 43.6011 135.3223 43.6011 135.3223 11.6671 154.8833 11.6671 154.8833 17.8991 143.1013 17.8991" style="fill:#1745c7;"/><polygon points="187.5903 11.6667 187.5903 43.6008 179.8113 43.6008 179.8113 30.4548 167.7113 30.4548 167.7113 43.6008 159.9313 43.6008 159.9313 11.6667 167.7113 11.6667 167.7113 24.1768 179.8113 24.1768 179.8113 11.6667 187.5903 11.6667" style="fill:#1745c7;"/><path d="M211.062,31.9548l-3.958-11.69-3.911,11.69h7.869ZM213.064,37.9597h-11.918l-1.911,5.6411h-8.143l11.555-31.934h9.007l11.554,31.934h-8.233l-1.911-5.6411Z" style="fill:#1745c7;"/><path d="M245.0432,34.4572c1.638-1.607,2.457-3.882,2.457-6.823s-.819-5.232-2.457-6.869c-1.638-1.638-3.928-2.457-6.869-2.457h-3.685v18.56h3.685c2.941,0,5.231-.803,6.869-2.411M247.5002,13.6682c2.517,1.334,4.464,3.207,5.845,5.618,1.38,2.411,2.07,5.194,2.07,8.348,0,3.123-.69,5.898-2.07,8.324-1.381,2.427-3.336,4.307-5.868,5.641-2.532,1.335-5.467,2.002-8.802,2.002h-11.965V11.6672h11.965c3.366,0,6.307.667,8.825,2.001" style="fill:#1745c7;"/><polygon points="108.4383 58.4343 108.4383 64.8933 118.8553 64.8933 118.8553 70.8983 108.4383 70.8983 108.4383 77.9043 120.2203 77.9043 120.2203 84.1364 100.6593 84.1364 100.6593 52.2023 120.2203 52.2023 120.2203 58.4343 108.4383 58.4343" style="fill:#1745c7;"/><polygon points="133.0478 78.1316 143.2378 78.1316 143.2378 84.1366 125.2688 84.1366 125.2688 52.2026 133.0478 52.2026 133.0478 78.1316" style="fill:#1745c7;"/><path d="M152.2439,83.3174c-1.85-.758-3.328-1.88-4.435-3.366-1.107-1.486-1.691-3.276-1.751-5.368h8.279c.121,1.183.53,2.085,1.228,2.707.697.622,1.607.933,2.73.933,1.152,0,2.061-.266,2.729-.797.667-.53,1.001-1.266,1.001-2.206,0-.788-.266-1.44-.797-1.956-.531-.515-1.182-.94-1.955-1.274-.774-.333-1.873-.713-3.299-1.137-2.062-.638-3.745-1.274-5.049-1.911-1.304-.637-2.426-1.576-3.366-2.82-.94-1.243-1.41-2.867-1.41-4.868,0-2.972,1.075-5.3,3.23-6.982,2.153-1.684,4.958-2.525,8.415-2.525,3.518,0,6.353.841,8.507,2.525,2.153,1.682,3.305,4.025,3.457,7.028h-8.416c-.061-1.031-.44-1.843-1.137-2.434-.698-.592-1.592-.887-2.684-.887-.94,0-1.699.251-2.275.75-.576.501-.864,1.222-.864,2.161,0,1.031.485,1.835,1.456,2.411.97.577,2.487,1.199,4.549,1.866,2.062.697,3.737,1.364,5.027,2.001,1.288.637,2.402,1.562,3.343,2.775.939,1.213,1.411,2.775,1.411,4.685,0,1.82-.463,3.473-1.388,4.959-.926,1.486-2.267,2.669-4.026,3.548-1.759.88-3.837,1.319-6.232,1.319-2.336,0-4.428-.379-6.278-1.137" style="fill:#1745c7;"/><path d="M196.164,74.8105c1.532-1.698,2.297-3.941,2.297-6.732,0-2.821-.765-5.072-2.297-6.756-1.531-1.683-3.571-2.524-6.118-2.524-2.578,0-4.633.834-6.164,2.501-1.532,1.669-2.297,3.929-2.297,6.779,0,2.82.765,5.072,2.297,6.755,1.531,1.683,3.586,2.525,6.164,2.525,2.547,0,4.587-.849,6.118-2.548M181.789,82.3615c-2.501-1.394-4.489-3.343-5.959-5.845-1.471-2.502-2.207-5.315-2.207-8.438s.736-5.929,2.207-8.416c1.47-2.487,3.458-4.428,5.959-5.822,2.502-1.395,5.254-2.094,8.257-2.094s5.754.699,8.256,2.094c2.502,1.394,4.474,3.335,5.914,5.822,1.44,2.487,2.161,5.293,2.161,8.416s-.728,5.936-2.184,8.438c-1.455,2.502-3.427,4.451-5.913,5.845-2.488,1.396-5.232,2.093-8.234,2.093s-5.755-.697-8.257-2.093" style="fill:#1745c7;"/><path d="M227.2343,76.972c.712-.592,1.069-1.448,1.069-2.57s-.372-2.002-1.114-2.639c-.744-.637-1.767-.956-3.071-.956h-5.641v7.052h5.732c1.304,0,2.312-.296,3.025-.887M218.4774,65.1209h5.095c1.273,0,2.251-.28,2.934-.842.683-.56,1.024-1.387,1.024-2.478,0-1.092-.341-1.926-1.024-2.503-.683-.576-1.661-.864-2.934-.864h-5.095v6.687ZM234.4904,70.5119c1.1219,1.44,1.683,3.086,1.683,4.935,0,2.669-.933,4.785-2.798,6.346-1.865,1.563-4.466,2.344-7.802,2.344h-14.875v-31.935h14.375c3.245,0,5.784.743,7.62,2.229,1.834,1.487,2.751,3.503,2.751,6.05,0,1.881-.492,3.443-1.478,4.686-.986,1.244-2.297,2.108-3.935,2.593,1.85.394,3.337,1.312,4.459,2.752" style="fill:#1745c7;"/><polygon points="259.1909 84.1364 248.4549 70.0334 248.4549 84.1364 240.6759 84.1364 240.6759 52.2025 248.4549 52.2025 248.4549 66.2135 259.0999 52.2025 268.2428 52.2025 255.8698 67.8505 268.6978 84.1364 259.1909 84.1364" style="fill:#1745c7;"/><polygon points="299.7675 52.2021 288.7135 73.5822 288.7135 84.1362 280.9355 84.1362 280.9355 73.5822 269.8814 52.2021 278.7055 52.2021 284.8925 65.5762 291.0335 52.2021 299.7675 52.2021" style="fill:#1745c7;"/><path d="M22.9241,0L2.5821,20.499C.9281,22.166,0,24.419,0,26.767v21.16L47.5591,0h-24.635Z" style="fill:#00b0ff;"/><path d="M0,47.927v8.588c0,4.914,3.984,8.899,8.898,8.899h39.99v-17.487H0Z" style="fill:#00b0ff;"/><path d="M54.9449,84.1355l20.342-20.499c1.654-1.667,2.582-3.919,2.582-6.268v-21.16l-47.559,47.927h24.635Z" style="fill:#00b0ff;"/><path d="M77.8692,27.619v8.591h-44.523l17.353-17.486h18.27c4.916,0,8.9,3.984,8.9,8.895" style="fill:#00b0ff;"/></g></g></svg>